<svg xmlns="http://www.w3.org/2000/svg" viewBox="0 0 512 512">
  <rect width="512" height="512" rx="96" fill="#F6F1E8"/>

  <!-- Phoenix bird · linha contínua, scaled to fit 512 -->
  <g stroke="#B8924A" stroke-width="6" fill="none" stroke-linecap="round" stroke-linejoin="round" transform="translate(0, 30)">
    <!-- Flame base -->
    <path d="M 226 320
             Q 220 308 224 296
             Q 232 286 240 294
             Q 246 286 254 294
             Q 262 286 270 294
             Q 280 286 288 296
             Q 292 308 286 320"/>

    <!-- Body -->
    <path d="M 256 320
             Q 254 285 256 260
             Q 258 230 256 205"/>

    <!-- Wings · sweeps -->
    <path d="M 256 215
             Q 195 180 145 130
             Q 115 100 100 75"/>
    <path d="M 256 215
             Q 317 180 367 130
             Q 397 100 412 75"/>

    <!-- Inner wing -->
    <path d="M 215 200 Q 185 175 155 150"/>
    <path d="M 297 200 Q 327 175 357 150"/>

    <!-- Head -->
    <circle cx="256" cy="195" r="9" fill="#B8924A" stroke="none"/>
  </g>

  <!-- Wordmark -->
  <text x="256" y="430" font-family="Georgia, serif" font-size="42"
        fill="#1F1814" text-anchor="middle" font-weight="300" letter-spacing="-0.5">
    fénixfit
  </text>
</svg>
